<svg width="360" height="360" viewBox="0 0 360 360" fill="none" xmlns="http://www.w3.org/2000/svg">
<circle cx="180" cy="180" r="175" stroke="url(#paint0_linear_5_25)" stroke-width="10"/>
<circle cx="180" cy="180" r="163" fill="url(#paint1_linear_5_25)"/>
<path d="M150.328 286H146.912L142.74 271.58L142.628 270.74V286H139.1V266.4H144.252L148.564 281.324L148.62 282.052L148.676 281.324L152.988 266.4H158.14V286H154.612V270.74L154.5 271.58L150.328 286ZM164.19 286H160.382L165.842 266.4H170.574L176.062 286H172.254L171.246 282.108H165.198L164.19 286ZM168.166 270.544L165.954 279.084H170.462L168.278 270.544L168.222 269.816L168.166 270.544ZM181.839 286H178.311V266.4H181.839V274.52H187.859V266.4H191.387V286H187.859V277.88H181.839V286ZM197.44 286H193.632L199.092 266.4H203.824L209.312 286H205.504L204.496 282.108H198.448L197.44 286ZM201.416 270.544L199.204 279.084H203.712L201.528 270.544L201.472 269.816L201.416 270.544ZM222.033 286H211.281V266.4H214.809V282.64H222.033V286Z" fill="#2E2E2E"/>
<line x1="227" y1="277.5" x2="273" y2="277.5" stroke="#2E2E2E" stroke-width="3"/>
<line x1="87" y1="277.5" x2="133" y2="277.5" stroke="#2E2E2E" stroke-width="3"/>
<path d="M156.36 130.04V132.44C154.6 133.08 152.72 134.48 150.72 136.64C148.8 138.8 147 142.16 145.32 146.72L120 215.24C119.36 215.16 118.68 215.12 117.96 215.12C117.24 215.12 116.52 215.12 115.8 215.12C115.16 215.12 114.48 215.12 113.76 215.12C113.04 215.12 112.36 215.16 111.72 215.24L81.12 140.12C80 137.24 78.76 135.28 77.4 134.24C76.04 133.12 74.76 132.52 73.56 132.44V130.04C75.96 130.12 78.76 130.2 81.96 130.28C85.24 130.36 88.52 130.4 91.8 130.4C95.48 130.4 98.92 130.36 102.12 130.28C105.4 130.2 108.04 130.12 110.04 130.04V132.44C107.48 132.52 105.48 132.84 104.04 133.4C102.6 133.88 101.8 134.84 101.64 136.28C101.48 137.64 101.96 139.72 103.08 142.52L124.92 198.08L122.4 201.08L138.96 156.44C141.12 150.44 142.24 145.72 142.32 142.28C142.4 138.84 141.56 136.36 139.8 134.84C138.04 133.32 135.52 132.52 132.24 132.44V130.04C134.96 130.12 137.52 130.2 139.92 130.28C142.32 130.36 144.76 130.4 147.24 130.4C149 130.4 150.64 130.36 152.16 130.28C153.76 130.2 155.16 130.12 156.36 130.04ZM152.396 237.56V235.16C155.596 234.84 158.316 233.88 160.556 232.28C162.796 230.76 164.516 228.12 165.716 224.36C166.916 220.6 167.516 215.32 167.516 208.52V142.76C167.516 139.8 167.276 137.64 166.796 136.28C166.396 134.84 165.556 133.88 164.276 133.4C162.996 132.84 161.076 132.52 158.516 132.44V130.04C160.516 130.12 163.116 130.2 166.316 130.28C169.596 130.36 173.036 130.4 176.636 130.4C180.236 130.4 183.716 130.36 187.076 130.28C190.516 130.2 193.356 130.12 195.596 130.04V132.44C193.116 132.52 191.196 132.84 189.836 133.4C188.556 133.88 187.676 134.84 187.196 136.28C186.796 137.64 186.596 139.8 186.596 142.76V186.68C186.596 189.96 186.596 193.52 186.596 197.36C186.596 201.12 186.436 204.8 186.116 208.4C185.876 212 185.356 215.2 184.556 218C182.956 223.52 179.476 228.16 174.116 231.92C168.836 235.68 161.596 237.56 152.396 237.56ZM281.547 130.04V132.32C278.987 132.88 276.227 134 273.267 135.68C270.387 137.36 267.347 140.08 264.147 143.84L241.587 170.72L248.547 160.76L277.107 205.28C278.227 207.12 279.427 208.6 280.707 209.72C281.987 210.84 283.667 211.8 285.747 212.6V215C282.947 214.84 279.827 214.76 276.387 214.76C272.947 214.68 269.827 214.64 267.027 214.64C265.347 214.64 263.307 214.68 260.907 214.76C258.507 214.76 255.467 214.84 251.787 215V212.6C255.067 212.44 257.027 212 257.667 211.28C258.387 210.48 258.107 209.12 256.827 207.2L239.427 179C238.307 177.16 237.307 175.8 236.427 174.92C235.547 173.96 234.667 173.32 233.787 173C232.907 172.6 231.747 172.36 230.307 172.28V169.76C233.827 169.68 236.947 168.72 239.667 166.88C242.467 165.04 245.507 162.24 248.787 158.48L255.867 149.96C258.907 146.36 260.667 143.28 261.147 140.72C261.707 138.08 261.187 136.04 259.587 134.6C258.067 133.16 255.707 132.4 252.507 132.32V130.04C254.507 130.12 256.387 130.2 258.147 130.28C259.987 130.28 261.867 130.32 263.787 130.4C265.787 130.4 267.947 130.4 270.267 130.4C272.587 130.4 274.667 130.36 276.507 130.28C278.427 130.2 280.107 130.12 281.547 130.04ZM240.027 130.04V132.44C237.467 132.52 235.507 132.84 234.147 133.4C232.867 133.88 232.027 134.84 231.627 136.28C231.227 137.64 231.027 139.8 231.027 142.76V202.28C231.027 205.16 231.227 207.32 231.627 208.76C232.107 210.2 232.987 211.16 234.267 211.64C235.547 212.12 237.467 212.44 240.027 212.6V215C237.867 214.84 235.147 214.76 231.867 214.76C228.587 214.68 225.267 214.64 221.907 214.64C218.067 214.64 214.427 214.68 210.987 214.76C207.627 214.76 204.947 214.84 202.947 215V212.6C205.507 212.44 207.427 212.12 208.707 211.64C209.987 211.16 210.827 210.2 211.227 208.76C211.707 207.32 211.947 205.16 211.947 202.28V142.76C211.947 139.8 211.707 137.64 211.227 136.28C210.827 134.84 209.947 133.88 208.587 133.4C207.307 132.84 205.427 132.52 202.947 132.44V130.04C204.947 130.12 207.627 130.2 210.987 130.28C214.427 130.36 218.067 130.4 221.907 130.4C225.267 130.4 228.587 130.36 231.867 130.28C235.147 130.2 237.867 130.12 240.027 130.04Z" fill="#2E2E2E"/>
<defs>
<linearGradient id="paint0_linear_5_25" x1="35.4546" y1="324.545" x2="343.091" y2="16.9091" gradientUnits="userSpaceOnUse">
<stop stop-color="#B59A60"/>
<stop offset="0.185" stop-color="#D1BE80"/>
<stop offset="0.32" stop-color="#E6DA97"/>
<stop offset="0.48" stop-color="#D8C988"/>
<stop offset="0.69" stop-color="#D5C484"/>
<stop offset="0.87" stop-color="#BAA066"/>
</linearGradient>
<linearGradient id="paint1_linear_5_25" x1="49.1061" y1="310.894" x2="327.688" y2="32.3121" gradientUnits="userSpaceOnUse">
<stop stop-color="#B59A60"/>
<stop offset="0.185" stop-color="#D1BE80"/>
<stop offset="0.32" stop-color="#E6DA97"/>
<stop offset="0.48" stop-color="#D8C988"/>
<stop offset="0.69" stop-color="#D5C484"/>
<stop offset="0.87" stop-color="#BAA066"/>
</linearGradient>
</defs>
</svg>
